<?xml version="1.0" standalone="no"?>
<!DOCTYPE svg PUBLIC "-//W3C//DTD SVG 20010904//EN"
 "http://www.w3.org/TR/2001/REC-SVG-20010904/DTD/svg10.dtd">
<svg version="1.0" xmlns="http://www.w3.org/2000/svg"
 width="250.000000pt" height="250.000000pt" viewBox="0 0 250.000000 250.000000"
 preserveAspectRatio="xMidYMid meet">
<g transform="translate(0.000000,250.000000) scale(0.100000,-0.100000)"
fill="#000000" stroke="none">
<path d="M554 2313 c-23 -21 -30 -85 -15 -125 7 -18 20 -28 48 -35 34 -8 42
-16 76 -83 22 -41 40 -82 42 -92 2 -9 11 -30 19 -47 42 -80 43 -76 -42 -118
-87 -43 -85 -42 -132 -83 -19 -16 -39 -30 -45 -30 -5 0 -23 -14 -39 -31 -16
-17 -40 -38 -53 -46 -12 -8 -23 -21 -23 -27 0 -6 -15 -25 -33 -42 -17 -17 -42
-49 -53 -70 -12 -21 -34 -60 -48 -86 -49 -85 -66 -168 -66 -317 0 -219 54
-353 206 -511 l72 -75 -10 -60 c-11 -65 -5 -196 11 -237 11 -28 88 -105 129
-128 32 -17 236 -21 264 -5 36 22 130 119 134 138 6 32 16 37 59 27 62 -15
391 -12 457 4 56 13 56 13 69 -13 15 -28 96 -110 144 -144 23 -17 47 -22 120
-25 110 -4 144 8 209 75 74 78 95 166 72 303 l-16 93 45 46 c55 57 100 123
147 221 56 117 60 139 56 310 l-3 155 -39 90 c-42 96 -130 227 -193 286 -61
58 -184 148 -219 161 -29 10 -32 15 -27 42 8 49 23 96 55 171 48 114 72 155
90 155 9 0 30 12 47 26 25 21 31 33 31 65 0 34 -5 42 -32 59 -18 11 -43 20
-56 20 -31 0 -79 -26 -92 -49 -12 -24 -13 -68 -1 -75 13 -9 -20 -90 -86 -207
-78 -140 -72 -135 -141 -115 -204 58 -219 61 -417 61 -175 0 -199 -2 -296 -28
-59 -15 -109 -27 -112 -27 -3 0 -16 17 -28 38 -13 20 -26 39 -30 42 -3 3 -32
54 -62 114 -43 84 -55 115 -50 137 7 35 -13 86 -38 99 -28 16 -84 12 -105 -7z
m87 -23 c17 0 29 -48 19 -74 -7 -21 0 -42 42 -123 70 -134 138 -243 152 -243
6 0 63 11 126 25 143 31 324 42 443 26 102 -14 265 -53 309 -76 17 -8 32 -14
33 -13 20 23 87 141 138 244 60 120 65 134 55 161 -6 17 -8 38 -5 47 14 35 89
40 107 7 13 -26 -10 -64 -47 -74 -28 -8 -37 -22 -83 -121 -58 -122 -113 -274
-104 -287 3 -5 10 -9 16 -9 21 0 177 -109 242 -171 105 -98 173 -208 217 -349
33 -105 32 -252 -3 -366 -79 -263 -304 -471 -621 -575 -50 -16 -132 -37 -181
-46 -110 -19 -322 -21 -426 -3 -292 50 -550 191 -696 381 -59 78 -120 207
-139 297 -67 323 116 649 462 824 57 29 103 58 103 65 0 17 -106 259 -133 303
-25 42 -36 50 -54 43 -23 -9 -53 27 -53 64 0 26 5 36 23 43 12 5 28 7 35 4 8
-2 18 -4 23 -4z m1453 -1945 c1 -97 0 -102 -32 -152 -87 -135 -249 -154 -375
-43 -35 30 -48 60 -28 60 5 0 43 26 83 58 40 32 106 76 147 97 40 21 99 58
129 82 56 43 56 44 66 21 5 -13 10 -68 10 -123z m-1407 5 c49 -24 100 -56 116
-71 15 -15 52 -42 82 -59 63 -36 63 -47 -1 -91 -125 -86 -311 -50 -372 73 -29
58 -38 137 -23 210 l12 57 49 -38 c28 -20 89 -57 137 -81z"/>
<path d="M1465 1461 c-131 -32 -215 -150 -185 -261 26 -95 144 -171 243 -156
122 20 207 103 207 202 0 98 -60 181 -151 208 -57 17 -68 18 -114 7z m143 -42
c101 -49 131 -193 59 -276 -86 -97 -250 -98 -331 -3 -32 39 -40 67 -34 131 13
130 177 210 306 148z"/>
<path d="M1350 1290 c-43 -43 -14 -120 45 -120 24 0 39 7 49 22 34 49 5 118
-49 118 -14 0 -34 -9 -45 -20z"/>
<path d="M859 1412 c-132 -69 -158 -224 -55 -327 134 -133 388 -39 388 144 0
52 -23 115 -55 150 -61 66 -186 81 -278 33z m194 -6 c21 -8 48 -22 59 -33 55
-49 74 -151 41 -220 -36 -76 -148 -123 -241 -102 -93 21 -145 84 -146 180 -1
45 5 64 27 97 51 78 164 112 260 78z"/>
<path d="M817 1272 c-25 -28 -22 -87 5 -106 12 -9 32 -16 43 -16 29 0 65 41
65 73 0 57 -77 89 -113 49z"/>
<path d="M1193 1100 c-18 -11 -33 -26 -33 -35 0 -8 -14 -22 -30 -30 -55 -29
-65 -91 -21 -135 18 -19 30 -43 34 -70 3 -22 11 -47 17 -55 15 -18 61 -20 77
-4 8 8 18 6 37 -6 24 -16 28 -16 51 -1 28 18 40 54 31 91 -6 22 -3 25 19 25
65 0 87 82 34 131 -17 16 -35 29 -39 29 -4 0 -13 13 -19 29 -22 52 -99 67
-158 31z m-9 -95 c25 -19 77 -19 123 0 46 19 46 19 82 -11 36 -30 39 -54 11
-79 -19 -17 -22 -17 -66 0 -45 17 -65 17 -176 -1 -33 -5 -39 -3 -47 17 -9 27
-5 46 17 72 18 21 31 21 56 2z"/>
<path d="M510 591 c0 -13 79 -81 151 -129 189 -127 525 -189 801 -147 170 25
288 62 420 132 67 35 158 110 158 130 0 6 -43 -7 -95 -28 -226 -91 -450 -132
-725 -133 -235 -1 -477 54 -633 144 -75 43 -77 44 -77 31z"/>
<path d="M1953 247 c-13 -5 -23 -14 -23 -18 0 -16 -59 -39 -100 -39 -23 0 -55
7 -71 16 -70 36 -36 -27 41 -76 84 -54 152 -45 206 26 22 29 26 40 18 61 -11
31 -41 44 -71 30z"/>
<path d="M540 303 c0 -68 57 -154 117 -179 41 -17 124 -18 145 -1 23 19 28 43
13 65 -11 15 -31 21 -92 27 -93 9 -124 23 -153 70 -24 39 -30 43 -30 18z"/>
</g>
</svg>
